<svg xmlns="http://www.w3.org/2000/svg" xmlns:xlink="http://www.w3.org/1999/xlink" viewBox="0 0 160 50.6" enable-background="new 0 0 160 50.6"><style type="text/css">.st0{clip-path:url(#SVGID_2_);fill:#F15A29;} .st1{clip-path:url(#SVGID_2_);fill:#414042;} .st2{clip-path:url(#SVGID_2_);fill:#46813D;}</style><defs><path id="SVGID_1_" d="M0 0h160v50.6H0z"/></defs><clipPath id="SVGID_2_"><use xlink:href="#SVGID_1_" overflow="visible"/></clipPath><path d="M15.9 41.7c0 1.4-.2 2.6-.6 3.7-.4 1.1-1 2-1.7 2.7-.7.7-1.6 1.3-2.5 1.6-1 .4-2 .5-3.1.5s-2.1-.2-3.1-.5c-1-.4-1.8-.9-2.5-1.6S1.1 46.5.7 45.4c-.5-1-.7-2.3-.7-3.7 0-1.4.2-2.6.6-3.7.4-1.1 1-2 1.7-2.7.7-.7 1.6-1.3 2.5-1.6 1-.4 2-.5 3-.5s2.1.2 3 .5c1 .4 1.8.9 2.5 1.6.7.7 1.3 1.6 1.7 2.7.7 1.1.9 2.3.9 3.7m-12.8 0c0 .9.1 1.7.3 2.4.2.7.5 1.4 1 1.9.4.5.9.9 1.5 1.2.6.3 1.3.4 2 .4s1.4-.1 2-.4c.6-.3 1.1-.7 1.5-1.2.4-.5.7-1.1 1-1.9.2-.7.3-1.5.3-2.4 0-.9-.1-1.7-.3-2.4-.2-.7-.5-1.4-1-1.9-.4-.5-.9-.9-1.5-1.2-.6-.3-1.3-.4-2-.4-.8 0-1.4.1-2 .4-.6.3-1.1.7-1.5 1.2-.4.5-.7 1.1-1 1.9-.2.7-.3 1.5-.3 2.4M23.6 33.7c2.4 0 4.2.4 5.4 1.3 1.3.9 1.9 2.2 1.9 4 0 2.2-1.1 3.7-3.3 4.5.3.4.6.8 1 1.3s.8 1.1 1.2 1.7c.4.6.8 1.2 1.1 1.9.4.6.7 1.3 1 1.9h-3.3c-.3-.6-.6-1.1-1-1.7-.3-.6-.7-1.1-1.1-1.7-.4-.5-.7-1.1-1.1-1.5-.3-.5-.7-.9-1-1.3-.2 0-.4 0-.6 0H22v6.2h-3V34.1c.7-.2 1.5-.3 2.3-.3.9 0 1.7-.1 2.3-.1m.2 2.6c-.6 0-1.2 0-1.7.1v5.3h1.3c.7 0 1.4 0 1.9-.1s1-.2 1.4-.4c.4-.2.6-.5.8-.8.2-.3.3-.8.3-1.3s-.1-.9-.3-1.3c-.2-.3-.5-.6-.8-.8-.4-.2-.8-.3-1.3-.4-.5-.3-1-.3-1.6-.3M45.7 50.3c-.2-.6-.4-1.3-.7-1.9-.2-.6-.5-1.3-.7-1.9h-6.9c-.2.7-.4 1.3-.7 1.9-.2.6-.5 1.3-.7 1.9h-3c.6-1.7 1.2-3.4 1.7-4.8.6-1.5 1.1-2.9 1.6-4.2.5-1.3 1.1-2.6 1.6-3.8.5-1.2 1.1-2.4 1.6-3.5h2.8c.6 1.2 1.1 2.3 1.6 3.5.5 1.2 1 2.5 1.6 3.8.5 1.3 1.1 2.7 1.6 4.2.6 1.5 1.1 3.1 1.8 4.8h-3.2zm-4.8-13.2c-.4.8-.8 1.9-1.2 3-.5 1.2-.9 2.5-1.5 3.9h5.4c-.5-1.4-1-2.7-1.5-3.9-.5-1.2-.9-2.2-1.2-3" class="st0"/><path d="M62 50.3c-.5-.9-1.1-1.9-1.8-2.9s-1.3-2.1-2.1-3.1c-.7-1-1.4-2.1-2.2-3-.7-1-1.4-1.9-2.1-2.7v11.7H51V33.9h2.4c.6.7 1.3 1.4 2 2.4.7.9 1.5 1.8 2.2 2.8.7 1 1.4 2 2.1 2.9.7 1 1.3 1.9 1.8 2.8V33.9h3v16.4H62zM76.1 36.1c-1.7 0-3 .5-3.9 1.6-.9 1-1.3 2.5-1.3 4.4 0 .9.1 1.7.3 2.4.2.7.5 1.4.9 1.9s.9.9 1.6 1.2c.6.3 1.3.4 2.2.4.5 0 1 0 1.3-.1.4 0 .7-.1.9-.2v-5.9h3v7.9c-.4.2-1.1.3-2.1.5s-2.1.3-3.4.3c-1.2 0-2.3-.2-3.2-.6-1-.4-1.8-.9-2.5-1.7-.7-.7-1.2-1.6-1.6-2.7-.4-1.1-.6-2.3-.6-3.6s.2-2.6.6-3.6c.4-1.1 1-1.9 1.7-2.7.7-.7 1.6-1.3 2.6-1.7 1-.4 2-.6 3.1-.6.8 0 1.4.1 2 .2.6.1 1.1.2 1.5.3.4.1.8.3 1.1.4.3.1.5.2.6.3l-.9 2.4c-.5-.3-1.1-.5-1.8-.7-.6 0-1.3-.1-2.1-.1" class="st0"/><path d="M84.6 50.3V33.9h10.5v2.5h-7.5v4.1h6.7v2.4h-6.7v4.8h7.5v2.6z" class="st0"/><path d="M107.1 44.9c0 .8-.1 1.6-.3 2.2-.2.7-.5 1.3-.9 1.8s-1 .9-1.7 1.2c-.7.3-1.7.4-2.8.4-1 0-1.9-.1-2.7-.4-.8-.3-1.4-.6-1.8-.9l1.1-2.3c.4.3.9.5 1.5.8.6.2 1.2.4 1.8.4 1 0 1.7-.3 2.2-.8.5-.5.7-1.4.7-2.6V33.9h3v11zM117.2 50.6c-1.1 0-2.1-.2-2.9-.5-.8-.3-1.5-.8-2-1.4-.5-.6-.9-1.3-1.2-2.1-.3-.8-.4-1.7-.4-2.6V33.9h3v9.9c0 .7.1 1.4.2 1.9.2.5.4 1 .7 1.3.3.3.7.6 1.1.7.4.2.9.2 1.4.2.5 0 1-.1 1.4-.2.4-.2.8-.4 1.1-.7.3-.3.5-.8.7-1.3.2-.5.2-1.2.2-1.9v-9.9h3v10.2c0 .9-.1 1.8-.4 2.6-.3.8-.7 1.5-1.2 2.1-.5.6-1.2 1-2 1.4-.6.3-1.6.4-2.7.4" class="st1"/><path d="M127.5 33.9h3v16.4h-3zM141.7 50.6c-1.2 0-2.3-.2-3.3-.6-1-.4-1.8-.9-2.5-1.7-.7-.7-1.2-1.6-1.6-2.7-.4-1.1-.5-2.3-.5-3.6 0-1.4.2-2.6.6-3.6.4-1.1 1-1.9 1.7-2.7.7-.7 1.6-1.3 2.6-1.7 1-.4 2-.6 3.1-.6.7 0 1.3.1 1.8.2.6.1 1 .2 1.4.3.4.1.7.3 1 .4.3.1.5.2.6.3l-.9 2.4c-.4-.2-.9-.5-1.6-.7-.7-.2-1.5-.3-2.3-.3-.7 0-1.4.1-2 .4-.6.2-1.1.6-1.6 1.1-.4.5-.8 1.1-1.1 1.8-.3.7-.4 1.6-.4 2.6 0 .9.1 1.7.3 2.4.2.7.5 1.4.9 1.9s.9.9 1.6 1.2c.6.3 1.4.4 2.3.4 1.1 0 1.9-.1 2.6-.3.7-.2 1.2-.4 1.5-.6l.8 2.4c-.2.1-.4.3-.8.4-.3.1-.7.2-1.1.4-.4.1-.9.2-1.5.3-.4.2-1 .2-1.6.2" class="st1"/><path d="M149.5 50.3V33.9H160v2.5h-7.5v4.1h6.7v2.4h-6.7v4.8h7.5v2.6z" class="st1"/><path d="M52.4 26.6c.1-.1.1-.2.1-.3l.2.4c.1 0 .1.1.2.1l-.9-.4v-.1l-.1-.1.7 1.3s0-.1-.1-.2V27l-.1-.4zm0-.1V26c0-.1 0-.2 0-.2h.3c.4 0 .7.3.7.7 0 .2-.1.4-.3.6 0 0-.1 0-.2-.1h-.1l-.9-.2c-.1 0-.1-.1-.1-.1 0-.1.1-.1.1-.1h.2l.2.4c0-.1 0-.1 0-.2l.1-.3zM94.1 2.9c-1.1-.3-2.2-.7-3.3-1l-1.7-.4c-.6-.1-1.1-.3-1.7-.4C86.3.9 85.1.7 84 .6c-.6 0-1.1-.1-1.7-.1h-1.7c-.6 0-1.2 0-1.7.1h-1.3l-.4.1-1.8.3c-.6.1-1.1.3-1.7.4-.6.1-1.1.3-1.6.5l-.8.3c-.3.1-.5.2-.8.3-1.1.4-2.1 1-3 1.6l-1.4 1-1.3 1.1c-.9.7-1.7 1.5-2.5 2.4-.4.4-.8.9-1.1 1.3-.4.4-.7.9-1.1 1.3-.4.4-.7.9-1 1.4-.3.5-.6 1-.9 1.4-.6 1-1.1 2-1.7 3-.5 1-1 2.1-1.4 3.1-.4 1.1-.8 2.1-1.2 3.2-.3 1.1-.7 2.2-.9 3.3l-.7-.6h.1c.3 0 .6.2.7.5 0 .2 0 .3-.1.4l-.1.1-.3-1c1.1.3 2.2.6 3.3.8 1.1.2 2.3.4 3.4.6 1.1.1 2.3.3 3.4.3 1.1.1 2.3.1 3.4.1.6 0 1.1 0 1.7-.1.6 0 1.1-.1 1.7-.2.6-.1 1.1-.1 1.7-.2.6-.1 1.1-.2 1.7-.3 1.1-.2 2.2-.6 3.3-.9l1.6-.6 1.5-.7c1-.5 2-1.1 2.9-1.8.2-.2.5-.3.7-.5l.7-.5c.4-.4.9-.7 1.3-1.1.4-.4.8-.8 1.2-1.2l1.1-1.3.3-.3.2-.3.5-.7c.3-.5.7-.9 1-1.4l.9-1.5c.3-.5.5-1 .8-1.5.5-1 .9-2.1 1.4-3.2.2-.5.4-1.1.6-1.6l.5-1.6.7-3.4zm.2 0c-.2 1.1-.4 2.3-.6 3.4L93.3 8c-.2.6-.3 1.1-.5 1.7-.4 1.1-.8 2.3-1.3 3.3-.2.5-.5 1.1-.7 1.6l-.8 1.6c-.3.5-.6 1-.9 1.5l-.5.7-.2.4-.4.4-1.1 1.4c-.4.4-.8.9-1.2 1.3-.4.5-.9.8-1.3 1.2l-.7.6c-.2.2-.5.4-.7.5-.9.7-2 1.3-3 1.9l-1.6.9-1.7.7c-1.1.4-2.3.8-3.4 1-.6.2-1.2.2-1.8.4-.6.1-1.2.2-1.8.3-.6.1-1.2.1-1.8.2-.6 0-1.2.1-1.8.1-1.2 0-2.4 0-3.6-.1-1.2-.1-2.4-.2-3.5-.4-1.2-.2-2.3-.4-3.5-.7-1.2-.3-2.3-.6-3.4-1-.3-.1-.5-.5-.4-.8 0-.1.1-.1.1-.2l.1-.1.6 1h-.1c-.3 0-.6-.2-.7-.5 0-.1 0-.1 0-.2.3-1.2.6-2.3 1-3.4s.8-2.2 1.2-3.3c.5-1.1 1-2.2 1.5-3.2s1.1-2.1 1.8-3.1c.3-.5.6-1 1-1.5.3-.5.7-1 1-1.4.4-.5.7-.9 1.1-1.4.4-.4.8-.9 1.2-1.3.8-.9 1.7-1.6 2.6-2.4l1.4-1.1 1.5-1c1-.6 2.1-1.1 3.2-1.6.3-.1.5-.2.8-.3l.8-.3c.6-.2 1.1-.4 1.7-.5.6-.1 1.1-.3 1.7-.4l1.7-.2.4-.1h1.3c.8-.2 1.4-.2 2-.2l1.8.1c.6 0 1.2.1 1.7.2 1.2.1 2.3.4 3.5.6.6.1 1.1.3 1.7.4l1.7.5c1 .3 2.1.6 3.3 1.1zM56.6 24.9s.5 0 1.3-.2c.4-.1.9-.2 1.5-.3.6-.1 1.2-.3 1.9-.5.3-.1.7-.2 1.1-.4.4-.1.8-.3 1.1-.4.4-.2.8-.3 1.2-.5.4-.2.8-.4 1.2-.6.8-.4 1.6-.8 2.5-1.3.8-.5 1.6-1 2.5-1.5.8-.6 1.6-1.1 2.3-1.7.7-.6 1.5-1.2 2.2-1.7.7-.6 1.4-1.1 2-1.6.3-.2.6-.5.9-.8.3-.3.6-.5.9-.7.3-.2.5-.5.8-.7.3-.2.5-.4.7-.6.4-.4.8-.7 1.2-1 .7-.6 1.1-.9 1.1-.9h.1v.1s-.3.4-.8 1.1c-.2.4-.6.8-.9 1.3-.4.5-.8 1-1.3 1.6-.5.5-1 1.2-1.6 1.7-.6.6-1.3 1.2-2 1.8-.7.6-1.5 1.1-2.3 1.7-.8.5-1.7 1-2.5 1.5-.9.5-1.7.9-2.6 1.4-.9.4-1.7.8-2.6 1.1-.4.2-.9.3-1.3.5-.4.1-.8.3-1.2.4-.4.1-.8.2-1.2.3-.4.1-.8.2-1.1.3-.7.1-1.4.3-2 .4-.8.3-1.3.3-1.8.3-.9.1-1.4.1-1.4.1l.1-.2zM81 17.9s.1-.2.3-.4c.1-.1.2-.3.3-.5.1-.2.2-.4.3-.6.1-.2.2-.5.3-.8.1-.3.2-.6.4-.9.1-.3.3-.6.4-.9.1-.3.2-.6.3-1 .1-.3.3-.6.3-1 .1-.3.2-.6.3-1 .1-.3.2-.6.3-.9.1-.3.2-.6.2-.8.3-1 .6-1.7.6-1.7s0 .7 0 1.8c0 .3 0 .6-.1.9 0 .3-.1.6-.2 1-.1.3-.1.7-.2 1-.1.3-.2.7-.3 1-.1.3-.3.7-.4 1-.1.3-.3.6-.5.9-.2.3-.3.6-.5.8-.2.3-.4.5-.5.7-.2.2-.4.4-.5.6-.1.2-.3.3-.4.4-.2.3-.4.4-.4.4M74.6 11.5s.1-.2.3-.4c.1-.1.2-.3.4-.4.2-.1.3-.3.6-.5.2-.2.5-.3.7-.5.3-.2.5-.3.8-.5.3-.2.6-.4 1-.5.3-.1.7-.3 1-.4.3-.1.7-.3 1-.3.3-.1.7-.2 1-.2.3-.1.6-.1 1-.2.3 0 .6-.1.9-.1 1.1-.1 1.8 0 1.8 0s-.7.3-1.7.6c-.3.1-.5.2-.8.2-.3.1-.6.2-.9.3-.3.1-.6.2-1 .3-.3.1-.7.2-1 .3-.3.1-.7.2-1 .3-.3.1-.6.2-.9.4-.3.1-.6.2-.9.4-.3.1-.5.2-.8.3-.2.1-.4.2-.6.3-.2.1-.4.2-.5.3-.2.2-.4.3-.4.3" class="st2"/></svg>